<?xml version="1.0" encoding="UTF-8"?>
<svg width="200px" height="200px" viewBox="0 0 200 200" version="1.1" xmlns="http://www.w3.org/2000/svg" xmlns:xlink="http://www.w3.org/1999/xlink">
    <!-- Generator: Sketch 47.1 (45422) - http://www.bohemiancoding.com/sketch -->
    <title>Artboard</title>
    <desc>Created with Sketch.</desc>
    <defs></defs>
    <g id="Page-1" stroke="none" stroke-width="1" fill="none" fill-rule="evenodd">
        <g id="Artboard">
            <path d="M188,183.513761 L95.1100917,183.513761 C83.3363326,183.513761 72.4419461,181.449562 62.4266055,177.321101 C52.4112649,173.19264 43.7339817,167.420526 36.3944954,160.004587 C29.0550092,152.588648 23.3211216,143.796687 19.1926606,133.62844 C15.0641995,123.460194 13,112.336452 13,100.256881 C13,88.1773096 15.0641995,77.0535677 19.1926606,66.8853211 C23.3211216,56.7170745 29.0550092,47.9251135 36.3944954,40.5091743 C43.7339817,33.0932351 52.4112649,27.3211216 62.4266055,23.1926606 C72.4419461,19.0641995 83.3363326,17 95.1100917,17 C106.730945,17 117.54888,19.0641995 127.56422,23.1926606 C137.579561,27.3211216 146.256844,33.0932351 153.59633,40.5091743 C160.935817,47.9251135 166.669704,56.7170745 170.798165,66.8853211 C174.926626,77.0535677 176.990826,88.1773096 176.990826,100.256881 C176.990826,114.935853 173.970978,128.123795 167.931193,139.821101 C161.891407,151.518407 152.22025,160.883757 138.917431,167.917431 L138.917431,168.376147 L188,168.376147 L188,183.513761 Z M30.8899083,100.256881 C30.8899083,109.278333 32.3424931,117.879164 35.2477064,126.059633 C38.1529197,134.240102 42.3577706,141.4648 47.8623853,147.733945 C53.367,154.003089 60.0947615,159.010685 68.0458716,162.756881 C75.9969817,166.503077 85.0182982,168.376147 95.1100917,168.376147 C105.048979,168.376147 113.993844,166.503077 121.944954,162.756881 C129.896064,159.010685 136.623826,154.003089 142.12844,147.733945 C147.633055,141.4648 151.837906,134.240102 154.743119,126.059633 C157.648333,117.879164 159.100917,109.278333 159.100917,100.256881 C159.100917,91.2354289 157.648333,82.6345975 154.743119,74.4541284 C151.837906,66.2736594 147.633055,59.048961 142.12844,52.7798165 C136.623826,46.510672 129.896064,41.5030768 121.944954,37.7568807 C113.993844,34.0106846 105.048979,32.1376147 95.1100917,32.1376147 C85.0182982,32.1376147 75.9969817,34.0106846 68.0458716,37.7568807 C60.0947615,41.5030768 53.367,46.510672 47.8623853,52.7798165 C42.3577706,59.048961 38.1529197,66.2736594 35.2477064,74.4541284 C32.3424931,82.6345975 30.8899083,91.2354289 30.8899083,100.256881 Z" id="Q" fill="#4D4D4E"></path>
            <g id="Group" transform="translate(47.000000, 100.000000)" fill="#4A4A4A">
                <circle id="Oval" cx="12.5" cy="12.5" r="12.5"></circle>
                <circle id="Oval" cx="47.5" cy="12.5" r="12.5"></circle>
                <circle id="Oval" cx="82.5" cy="12.5" r="12.5"></circle>
            </g>
        </g>
    </g>
</svg>